<svg width="31" height="31" viewBox="0 0 31 31" fill="none" xmlns="http://www.w3.org/2000/svg">
<path d="M2.47488 17.2678C1.49857 16.2915 1.49856 14.7085 2.47487 13.7322L13.7322 2.47488C14.7085 1.49856 16.2915 1.49856 17.2678 2.47487L28.5251 13.7322C29.5014 14.7085 29.5014 16.2915 28.5251 17.2678L17.2678 28.5251C16.2915 29.5014 14.7085 29.5014 13.7322 28.5251L2.47488 17.2678Z" fill="url(#paint0_linear_2143_193)" stroke="white"/>
<path d="M17.0943 19.7117H14.0112L13.5783 6.75684H17.5272L17.0943 19.7117ZM13.5127 23.7087C13.5127 23.126 13.7007 22.6505 14.0768 22.2821C14.4529 21.9051 14.9427 21.7166 15.5462 21.7166C16.1409 21.7166 16.6264 21.9051 17.0025 22.2821C17.3785 22.6505 17.5666 23.126 17.5666 23.7087C17.5666 24.2827 17.3785 24.754 17.0025 25.1224C16.6351 25.4908 16.1497 25.675 15.5462 25.675C14.934 25.675 14.4398 25.4908 14.0637 25.1224C13.6964 24.754 13.5127 24.2827 13.5127 23.7087Z" fill="black"/>
<defs>
<linearGradient id="paint0_linear_2143_193" x1="7.75" y1="7.75" x2="23.25" y2="23.25" gradientUnits="userSpaceOnUse">
<stop stop-color="#FFB800"/>
<stop offset="1" stop-color="#FF8A00"/>
</linearGradient>
</defs>
</svg>
