<svg width="138" height="139" viewBox="0 0 138 139" fill="none" xmlns="http://www.w3.org/2000/svg">
<path d="M126.773 71.9601L108.67 56.2751C108.232 55.8955 106.389 55.4907 106.217 57.3955V64.7206H93.9372L104.903 55.2195C105.509 54.2362 105.622 53.8429 104.903 52.9785L79.2583 30.7595C78.8197 30.3799 78.2004 30.2907 77.6717 30.5316C77.1438 30.7725 76.8051 31.2998 76.8051 31.88V42.8737H47.6324C46.8136 42.8737 46.15 43.5373 46.15 44.3561V48.0112H23.6641V50.9761H52.5901V48.0112H49.1148V45.8385H78.2876C79.1063 45.8385 79.77 45.1749 79.77 44.3561V35.1257L101.668 54.099L79.77 73.0722V63.8421C79.77 63.0234 79.1063 62.3597 78.2876 62.3597H49.1148V53.9409H46.15V63.8421C46.15 64.6609 46.8136 65.3245 47.6324 65.3245H76.8051V76.3182C76.8051 76.8985 77.1439 77.4257 77.6717 77.6666C77.8689 77.7566 78.6011 78.036 79.2583 77.4387L87.3668 70.4133V79.9582C87.3668 80.777 88.0304 81.4407 88.8492 81.4407H106.217V88.7656C106.217 89.3459 107.064 91.0688 108.67 89.8861L126.773 74.201C127.098 73.9193 127.285 73.5105 127.285 73.0805C127.285 72.6506 127.098 72.2418 126.773 71.9601ZM109.182 85.5196V79.9582C109.182 79.1395 108.518 78.4758 107.699 78.4758H90.3316V67.8445L90.5153 67.6855H107.699C108.518 67.6855 109.182 67.0218 109.182 66.203V60.6416L123.539 73.0807L109.182 85.5196Z" fill="white"/>
<path d="M82.0823 89.9945L63.9794 74.3097C63.5407 73.9301 62.9211 73.8407 62.3927 74.0819C61.8649 74.3228 61.5261 74.85 61.5261 75.4302V82.7549H41.8545C41.0357 82.7549 40.3721 83.4185 40.3721 84.2373V97.9928C40.3721 98.8117 41.0357 99.4753 41.8545 99.4753H61.5261V106.8C61.5261 107.38 62.2727 109.045 63.9794 107.92L82.0823 92.2354C82.4071 91.9537 82.5939 91.5449 82.5939 91.1149C82.5939 90.685 82.4072 90.2762 82.0823 89.9945ZM64.491 103.554V97.9929C64.491 97.1741 63.8273 96.5105 63.0086 96.5105H43.3369V85.7198H63.0086C63.8273 85.7198 64.491 85.0562 64.491 84.2374V78.6763L78.8476 91.1151L64.491 103.554Z" fill="black"/>
<path d="M20.7959 36.7271H25.476V39.692H20.7959V36.7271Z" fill="black"/>
<path d="M37.3203 36.7271H66.2464V39.692H37.3203V36.7271Z" fill="black"/>
<path d="M29.0371 36.7271H33.7167V39.692H29.0371V36.7271Z" fill="white"/>
<path d="M15.3809 48.0113H20.0605V50.9761H15.3809V48.0113Z" fill="white"/>
<path d="M27.4688 67.5513H32.1483V70.5161H27.4688V67.5513Z" fill="black"/>
<path d="M43.9932 68.0001H72.9192V70.9649H43.9932V68.0001Z" fill="black"/>
<path d="M35.71 67.5513H40.3896V70.5161H35.71V67.5513Z" fill="black"/>
<path d="M10.0439 77.353H14.7235V80.3178H10.0439V77.353Z" fill="white"/>
<path d="M26.5684 77.353H55.4944V80.3178H26.5684V77.353Z" fill="white"/>
<path d="M18.2852 77.353H22.9648V80.3178H18.2852V77.353Z" fill="black"/>
<path d="M12.3301 103.835H17.0097V106.8H12.3301V103.835Z" fill="white"/>
<path d="M28.8545 103.835H57.7806V106.8H28.8545V103.835Z" fill="black"/>
<path d="M20.5703 103.835H25.2505V106.8H20.5703V103.835Z" fill="white"/>
</svg>
