<svg width="116" height="128" viewBox="0 0 116 128" fill="none" xmlns="http://www.w3.org/2000/svg">
<circle cx="66" cy="64" r="49.5" stroke="white" stroke-opacity="0.2"/>
<circle cx="66" cy="64" r="41.5" stroke="white" stroke-opacity="0.4"/>
<circle cx="66.5" cy="63.5" r="30" stroke="white" stroke-opacity="0.6"/>
<path d="M61 73L75 64L61 55V73ZM66 84C63.2333 84 60.6333 83.4747 58.2 82.424C55.7667 81.3733 53.65 79.9487 51.85 78.15C50.05 76.35 48.6253 74.2333 47.576 71.8C46.5267 69.3667 46.0013 66.7667 46 64C46 61.2333 46.5253 58.6333 47.576 56.2C48.6267 53.7667 50.0513 51.65 51.85 49.85C53.65 48.05 55.7667 46.6253 58.2 45.576C60.6333 44.5267 63.2333 44.0013 66 44C68.7667 44 71.3667 44.5253 73.8 45.576C76.2333 46.6267 78.35 48.0513 80.15 49.85C81.95 51.65 83.3753 53.7667 84.426 56.2C85.4767 58.6333 86.0013 61.2333 86 64C86 66.7667 85.4747 69.3667 84.424 71.8C83.3733 74.2333 81.9487 76.35 80.15 78.15C78.35 79.95 76.2333 81.3753 73.8 82.426C71.3667 83.4767 68.7667 84.0013 66 84Z" fill="#FFB800"/>
<path d="M67.7854 116.833L69.2153 116.705L69.7391 122.595L71.8402 122.408L71.3164 116.518L72.7463 116.391L73.3761 123.473L68.4152 123.914L67.7854 116.833Z" fill="white"/>
<path d="M57.6728 119.62C57.7609 118.671 58.0546 117.954 58.5539 117.471C59.0499 116.987 59.6966 116.783 60.494 116.857C61.2881 116.93 61.888 117.248 62.2936 117.808C62.699 118.372 62.8614 119.123 62.7809 120.06L62.6686 121.271C62.5783 122.243 62.2827 122.981 61.7816 123.484C61.2802 123.989 60.6292 124.205 59.8286 124.131C59.041 124.058 58.4453 123.731 58.0414 123.151C57.6373 122.574 57.4769 121.801 57.5604 120.831L57.6728 119.62ZM58.9969 120.94C58.9377 121.578 58.9844 122.062 59.137 122.39C59.2896 122.718 59.5572 122.899 59.9396 122.935C60.3189 122.97 60.6132 122.845 60.8227 122.561C61.0319 122.28 61.1682 121.833 61.2315 121.221L61.3484 119.962C61.4058 119.343 61.3559 118.877 61.1985 118.565C61.0408 118.256 60.7691 118.084 60.3834 118.048C60.0107 118.013 59.7203 118.13 59.5123 118.399C59.304 118.67 59.1703 119.107 59.1111 119.71L58.9969 120.94Z" fill="white"/>
<path d="M48.0451 117.213C48.2887 116.44 48.6671 115.905 49.1803 115.611C49.6935 115.317 50.3196 115.268 51.0587 115.466C51.8356 115.673 52.3635 116.087 52.6427 116.707C52.9179 117.33 52.9291 118.114 52.6764 119.061L52.3679 120.217C52.116 121.16 51.7083 121.83 51.1445 122.225C50.58 122.624 49.9171 122.721 49.156 122.518C48.4075 122.318 47.8956 121.958 47.6204 121.436C47.3421 120.914 47.2807 120.254 47.4363 119.456L48.828 119.828C48.7113 120.316 48.6978 120.669 48.7874 120.889C48.8732 121.11 49.0984 121.27 49.4633 121.367C49.8344 121.466 50.1318 121.406 50.3556 121.186C50.5786 120.969 50.7741 120.565 50.9422 119.973L51.2885 118.675C51.4707 117.993 51.5203 117.504 51.4373 117.209C51.3512 116.913 51.1226 116.716 50.7515 116.617C50.3866 116.519 50.1115 116.54 49.9261 116.679C49.7399 116.822 49.5752 117.123 49.4321 117.584L48.0451 117.213Z" fill="white"/>
<path d="M40.307 119.629L41.3462 114.417L37.8959 118.457L36.2094 117.638L39.3163 111.243L40.6119 111.873L39.7711 113.603L38.3573 116.212L41.7713 112.436L42.6497 112.863L41.7918 117.88L42.9684 115.157L43.8092 113.426L45.1004 114.054L41.9935 120.448L40.307 119.629Z" fill="white"/>
<path d="M28.789 107.973C29.3696 107.216 29.9999 106.766 30.6799 106.623C31.3573 106.478 32.0137 106.65 32.649 107.137C33.2817 107.623 33.6204 108.211 33.6649 108.901C33.7075 109.594 33.445 110.316 32.8775 111.067L32.1374 112.031C31.543 112.806 30.8998 113.273 30.2079 113.431C29.5141 113.592 28.8482 113.428 28.2103 112.938C27.5827 112.457 27.2526 111.863 27.2199 111.157C27.1853 110.454 27.4616 109.714 28.0489 108.937L28.789 107.973ZM29.2066 109.795C28.8163 110.304 28.5983 110.738 28.5527 111.096C28.5071 111.455 28.6367 111.752 28.9414 111.986C29.2436 112.217 29.5591 112.269 29.8881 112.139C30.215 112.013 30.5683 111.707 30.9479 111.223L31.7178 110.22C32.0962 109.727 32.302 109.306 32.3351 108.958C32.3662 108.613 32.2281 108.322 31.9208 108.086C31.6238 107.858 31.3158 107.803 30.9968 107.919C30.6758 108.038 30.3297 108.336 29.9586 108.815L29.2066 109.795Z" fill="white"/>
<path d="M19.49 103.408L20.687 104.695L25.0173 100.669L25.9982 101.723L21.6678 105.75L22.8449 107.016L21.9688 107.83L18.6139 104.222L19.49 103.408Z" fill="white"/>
<path d="M18.2894 96.6248L20.3686 95.2367L21.1657 96.4307L15.2529 100.378L13.9082 98.3639C13.5178 97.7791 13.3883 97.1923 13.5197 96.6036C13.6493 96.0122 14.0038 95.523 14.5832 95.1363C15.1625 94.7495 15.7348 94.6159 16.3001 94.7356C16.8653 94.8553 17.3513 95.2198 17.758 95.8289L18.2894 96.6248ZM17.2944 97.2891L16.7468 96.4688C16.595 96.2414 16.403 96.1151 16.171 96.09C15.9389 96.0648 15.6808 96.1472 15.3965 96.3369C15.1014 96.5339 14.9097 96.7539 14.8214 96.9968C14.7304 97.2416 14.7549 97.4718 14.895 97.6875L15.4508 98.52L17.2944 97.2891Z" fill="white"/>
<path d="M8.53569 89.0558L7.95191 87.7444L14.4469 84.8532L15.0307 86.1647L10.7304 88.0789L15.8825 88.0784L16.4683 89.3944L9.9733 92.2855L9.38753 90.9695L13.6922 89.0534L8.53569 89.0558Z" fill="white"/>
<path d="M5.74068 77.3937L6.16817 79.0987L11.9037 77.6607L12.254 79.0579L6.51846 80.4959L6.93882 82.1725L5.77844 82.4634L4.58031 77.6846L5.74068 77.3937Z" fill="white"/>
<path d="M7.19324 68.7634L7.40849 70.9894L9.2845 70.808L9.02978 68.1738L10.2157 68.0591L10.6085 72.1222L3.53218 72.8065L3.14023 68.7531L4.33096 68.638L4.58474 71.2624L6.25663 71.1008L6.04139 68.8748L7.19324 68.7634Z" fill="white"/>
<path d="M9.98603 60.2191L2.94119 59.2634L3.23656 57.0861C3.33634 56.3506 3.57655 55.8149 3.9572 55.4789C4.33507 55.1393 4.84012 55.0123 5.47235 55.0981C5.8304 55.1467 6.12773 55.2675 6.36434 55.4605C6.60095 55.6536 6.76033 55.8953 6.84248 56.1857C6.97569 55.8818 7.19097 55.663 7.48835 55.5293C7.7825 55.3951 8.12956 55.3551 8.52954 55.4094C9.21338 55.5021 9.70389 55.7608 10.0011 56.1855C10.2987 56.6069 10.3991 57.1741 10.3024 57.887L9.98603 60.2191ZM7.11624 58.3811L8.99842 58.6364L9.12182 57.7268C9.15639 57.472 9.10362 57.2677 8.9635 57.114C8.82339 56.9603 8.60817 56.8638 8.31786 56.8244C7.68564 56.7386 7.33039 56.9237 7.25212 57.3795L7.11624 58.3811ZM6.08081 58.2406L6.18124 57.5003C6.25694 56.9423 6.0061 56.6241 5.4287 56.5458C5.10936 56.5025 4.87159 56.5359 4.71538 56.6461C4.55917 56.7563 4.46138 56.9566 4.42199 57.2469L4.3196 58.0017L6.08081 58.2406Z" fill="white"/>
<path d="M5.40966 46.2764L5.84248 44.9077L12.621 47.0512L12.1882 48.4199L7.70021 47.0007L11.5566 50.4172L11.1223 51.7906L4.3438 49.6471L4.7781 48.2737L9.27074 49.6943L5.40966 46.2764Z" fill="white"/>
<path d="M18.2551 38.4545L17.6268 39.6136L16.09 38.7806L14.4869 41.7383L16.0194 42.5689L15.3725 43.7623L12.7553 42.4326L12.981 42.0162C12.9115 41.7415 12.7179 41.4496 12.4004 41.1405C12.0829 40.8314 11.6324 40.491 11.049 40.1192L8.22963 38.3633L10.1772 34.7702L15.38 37.5904L15.7314 36.9422L18.2551 38.4545ZM13.7163 40.6597L14.6982 38.8481L10.5471 36.5981L9.93286 37.7314L11.5984 38.7675C12.5928 39.399 13.2987 40.0297 13.7163 40.6597Z" fill="white"/>
<path d="M19.0957 28.5304L17.7151 30.2897L19.1978 31.4533L20.8316 29.3713L21.7689 30.1068L19.2488 33.3181L13.656 28.9291L16.17 25.7255L17.1111 26.4641L15.4833 28.5383L16.8047 29.5753L18.1853 27.816L19.0957 28.5304Z" fill="white"/>
<path d="M25.5475 21.841C26.1945 22.5418 26.5305 23.2395 26.5557 23.9339C26.5833 24.626 26.3029 25.2437 25.7145 25.7869C25.1285 26.3278 24.4914 26.5615 23.8033 26.4879C23.1129 26.4119 22.4463 26.0305 21.8034 25.3437L20.9788 24.4503C20.3164 23.7327 19.9659 23.0195 19.9275 22.3108C19.8868 21.5997 20.1619 20.9714 20.7527 20.426C21.3339 19.8895 21.9752 19.6652 22.6766 19.7531C23.3758 19.8387 24.0579 20.2369 24.7228 20.9476L25.5475 21.841ZM23.681 21.9426C23.246 21.4714 22.8556 21.1828 22.5097 21.0768C22.1637 20.9708 21.8497 21.0481 21.5674 21.3087C21.2876 21.567 21.1833 21.8692 21.2547 22.2153C21.3239 22.559 21.5648 22.9591 21.9773 23.4156L22.8351 24.3448C23.2568 24.8017 23.6363 25.076 23.9736 25.1678C24.3086 25.2573 24.6185 25.1706 24.9031 24.9078C25.1782 24.6539 25.2855 24.3599 25.2252 24.0258C25.1626 23.6892 24.9272 23.2974 24.5189 22.8503L23.681 21.9426Z" fill="white"/>
<path d="M37.5627 13.4649C38.0078 14.3084 38.1534 15.0689 37.9994 15.7465C37.8483 16.4226 37.4186 16.9475 36.7104 17.3212C36.0051 17.6935 35.3293 17.7557 34.6832 17.5078C34.0355 17.257 33.4893 16.7171 33.0444 15.8882L32.4769 14.8129C32.0211 13.9492 31.8656 13.17 32.0105 12.4751C32.1539 11.7774 32.5812 11.2409 33.2922 10.8656C33.9918 10.4964 34.6692 10.4444 35.3245 10.7096C35.9782 10.9719 36.5351 11.5319 36.9952 12.3896L37.5627 13.4649ZM35.7327 13.0836C35.4333 12.5164 35.1301 12.1372 34.8231 11.9459C34.516 11.7546 34.1926 11.7486 33.8529 11.9279C33.5161 12.1057 33.3377 12.371 33.3178 12.7238C33.2964 13.0737 33.4263 13.5223 33.7077 14.0694L34.298 15.1879C34.5882 15.7377 34.8845 16.1004 35.1869 16.2757C35.4877 16.4482 35.8094 16.4441 36.152 16.2632C36.4831 16.0885 36.6624 15.8319 36.6899 15.4935C36.7159 15.1522 36.589 14.7131 36.3093 14.1761L35.7327 13.0836Z" fill="white"/>
<path d="M52.0383 11.3044L50.643 11.6206L49.9707 8.65378L47.904 9.12207L48.5762 12.0889L47.1761 12.4061L45.6051 5.47246L47.0052 5.15523L47.6407 7.96011L49.7075 7.49182L49.0719 4.68695L50.4672 4.3708L52.0383 11.3044Z" fill="white"/>
<path d="M59.9841 8.72028L58.0278 8.80338L57.709 10.2733L56.1919 10.3378L58.1098 3.1405L59.4221 3.08476L61.9581 10.0928L60.4263 10.1579L59.9841 8.72028ZM58.2893 7.5949L59.6162 7.53854L58.8452 5.03482L58.2893 7.5949Z" fill="white"/>
<path d="M71.3627 8.25384C71.2244 9.0533 70.9205 9.63305 70.4511 9.9931C69.9818 10.3532 69.3677 10.4847 68.6089 10.3877C67.8113 10.2857 67.2329 9.94593 66.8736 9.36835C66.5179 8.78795 66.4021 8.0118 66.5264 7.0399L66.6781 5.85327C66.8019 4.88459 67.1169 4.16678 67.6229 3.69983C68.1293 3.22966 68.7732 3.04453 69.5546 3.14443C70.3231 3.24268 70.8785 3.53191 71.2207 4.01214C71.5662 4.49277 71.715 5.1386 71.6671 5.94962L70.2383 5.76695C70.289 5.26804 70.2552 4.91587 70.1371 4.71043C70.0226 4.50217 69.7781 4.3741 69.4035 4.32621C69.0225 4.2775 68.7358 4.37703 68.5433 4.62481C68.3512 4.86935 68.2113 5.29614 68.1236 5.90517L67.9533 7.2371C67.8638 7.93777 67.8797 8.42879 68.0013 8.71015C68.1261 8.99192 68.379 9.15716 68.76 9.20587C69.1345 9.25376 69.4044 9.19638 69.5696 9.03372C69.7352 8.86783 69.8582 8.54719 69.9387 8.07179L71.3627 8.25384Z" fill="white"/>
</svg>
