<svg width="116" height="128" xmlns="http://www.w3.org/2000/svg">

 <g>
  <title>background</title>
  <rect fill="#000000" id="canvas_background" height="130" width="118" y="-1" x="-1"/>
 </g>
 <g>
  <title>Layer 1</title>
  <circle id="svg_1" stroke-opacity="0.2" stroke="white" r="49.5" cy="64" cx="58.000042"/>
  <circle id="svg_2" stroke-opacity="0.4" stroke="white" r="41.5" cy="64" cx="58.000042"/>
  <circle id="svg_3" stroke-opacity="0.6" stroke="white" r="30" cy="63.5" cx="58.500042"/>
  <path id="svg_4" fill="#FFB800" d="m53.000042,73l14,-9l-14,-9l0,18zm5,11c-2.7667,0 -5.3667,-0.5253 -7.8,-1.576c-2.4333,-1.0507 -4.55,-2.4753 -6.35,-4.274c-1.8,-1.8 -3.2247,-3.9167 -4.274,-6.35c-1.0493,-2.4333 -1.5747,-5.0333 -1.576,-7.8c0,-2.7667 0.5253,-5.3667 1.576,-7.8c1.0507,-2.4333 2.4753,-4.55 4.274,-6.35c1.8,-1.8 3.9167,-3.2247 6.35,-4.274c2.4333,-1.0493 5.0333,-1.5747 7.8,-1.576c2.7667,0 5.3667,0.5253 7.8,1.576c2.4333,1.0507 4.55,2.4753 6.35,4.274c1.8,1.8 3.2253,3.9167 4.276,6.35c1.0507,2.4333 1.5753,5.0333 1.574,7.8c0,2.7667 -0.5253,5.3667 -1.576,7.8c-1.0507,2.4333 -2.4753,4.55 -4.274,6.35c-1.8,1.8 -3.9167,3.2253 -6.35,4.276c-2.4333,1.0507 -5.0333,1.5753 -7.8,1.574z"/>
 </g>
</svg>